<?xml version="1.0" encoding="UTF-8" standalone="no"?>
<!DOCTYPE svg PUBLIC "-//W3C//DTD SVG 1.1//EN" "http://www.w3.org/Graphics/SVG/1.1/DTD/svg11.dtd">
<svg width="100%" height="100%" viewBox="0 0 100 100" version="1.1" xmlns="http://www.w3.org/2000/svg" xmlns:xlink="http://www.w3.org/1999/xlink" xml:space="preserve" xmlns:serif="http://www.serif.com/" style="fill-rule:evenodd;clip-rule:evenodd;">
    <circle cx="50" cy="50" r="45" style="fill:none;stroke:rgb(0,179,176);stroke-width:4px;"/>
    <path d="M50,5L50,95" style="fill:none;fill-rule:nonzero;stroke:rgb(0,179,176);stroke-width:4px;"/>
    <g transform="matrix(0.949934,-0.0500664,-0.0500664,0.949934,5.00664,-3.99336)">
        <path d="M50,50L20,20" style="fill:none;fill-rule:nonzero;stroke:rgb(0,179,176);stroke-width:4px;"/>
    </g>
    <g transform="matrix(-0.949934,-0.0500664,0.0500664,0.949934,94.9934,-3.99336)">
        <path d="M50,50L20,20" style="fill:none;fill-rule:nonzero;stroke:rgb(0,179,176);stroke-width:4px;"/>
    </g>
    <g transform="matrix(0.901077,0,0,0.898957,4.94614,-3.94784)">
        <path d="M50,50L80,20" style="fill:none;fill-rule:nonzero;stroke:rgb(0,179,176);stroke-width:4px;"/>
    </g>
    <g transform="matrix(1,0,0,-1,0,115)">
        <path d="M50,50L10.081,85.778" style="fill:none;fill-rule:nonzero;stroke:rgb(0,179,176);stroke-width:4px;"/>
    </g>
    <g transform="matrix(-1,0,0,-1,100,115)">
        <path d="M50,50L10.081,85.778" style="fill:none;fill-rule:nonzero;stroke:rgb(0,179,176);stroke-width:4px;"/>
    </g>
    <g transform="matrix(1,0,0,-1,0,140.109)">
        <path d="M50,50L5.021,91.501" style="fill:none;fill-rule:nonzero;stroke:rgb(0,179,176);stroke-width:4px;"/>
    </g>
    <g transform="matrix(-1,0,0,-1,100,140.109)">
        <path d="M50,50L5.021,91.501" style="fill:none;fill-rule:nonzero;stroke:rgb(0,179,176);stroke-width:4px;"/>
    </g>
</svg>
